<?xml version="1.0" encoding="utf-8"?>
<!-- Generator: Adobe Illustrator 16.0.0, SVG Export Plug-In . SVG Version: 6.00 Build 0)  -->
<!DOCTYPE svg PUBLIC "-//W3C//DTD SVG 1.1//EN" "http://www.w3.org/Graphics/SVG/1.1/DTD/svg11.dtd">
<svg version="1.1" id="Layer_1" xmlns="http://www.w3.org/2000/svg" xmlns:xlink="http://www.w3.org/1999/xlink" x="0px" y="0px"
	 width="800px" height="94.55px" viewBox="0 0 800 94.55" enable-background="new 0 0 800 94.55" xml:space="preserve">
<g>
	<path d="M0,0h6.548v74.184H0V0z"/>
	<path d="M19.226,0h6.549v10.496h-6.549V0z M19.226,20.574h6.549v53.61h-6.549V20.574z"/>
	<path d="M38.355,20.574h6.025v9.041h0.31c3.43-6.548,8.932-10.598,17.561-10.598c7.062,0,13.408,3.425,15.379,10.493
		c3.223-7.068,9.974-10.493,17.04-10.493c11.844,0,17.769,6.232,17.769,18.804v36.364h-6.55v-36.05
		c0-8.833-3.216-13.614-12.671-13.614c-11.328,0-14.55,9.355-14.55,19.326v30.338h-6.541V37.82c0-7.274-2.813-13.3-11.225-13.3
		c-11.223,0-16,8.521-16,19.741v29.923h-6.545v-53.61H38.355z"/>
	<path d="M124.954,0h6.545v30.758h0.206c2.704-7.689,10.705-11.74,18.599-11.74c16.312,0,24.105,13.09,24.105,28.361
		c0,15.274-7.793,28.362-24.105,28.362c-8.73,0-16.102-4.361-19.116-11.738h-0.213v10.184h-6.021V0z M150.304,24.52
		c-13.822,0-18.805,11.745-18.805,22.857c0,11.12,4.986,22.86,18.805,22.86c12.468,0,17.561-11.741,17.561-22.86
		C167.864,36.265,162.771,24.52,150.304,24.52z"/>
	<path d="M183.994,36.995c0.729-12.572,9.355-17.976,21.719-17.976c9.452,0,19.741,2.808,19.741,17.249v28.469
		c0,2.595,1.246,3.947,3.845,3.947c0.729,0,1.346-0.102,2.075-0.416v5.509c-1.559,0.312-2.495,0.416-4.26,0.416
		c-6.65,0-7.686-3.849-7.686-9.354h-0.21c-4.675,6.964-9.14,10.91-19.534,10.91c-9.974,0-17.975-4.882-17.975-15.69
		c0-14.962,14.65-15.582,28.781-17.243c5.401-0.523,8.413-1.458,8.413-7.271c0-8.834-6.233-11.013-14.026-11.013
		c-8.206,0-14.019,3.736-14.332,12.469h-6.55V36.995z M218.905,44.885h-0.206c-0.828,1.561-3.742,2.079-5.506,2.39
		c-11.12,1.976-24.937,1.976-24.937,12.369c0,6.544,5.716,10.6,11.951,10.6c10.075,0,18.698-6.339,18.698-16.835V44.885z"/>
	<path d="M289.587,70.756c0,8.835-3.216,23.794-27.845,23.794c-10.595,0-22.854-5.086-23.69-17.242h14.651
		c1.354,5.505,5.719,7.376,11.015,7.376c8.206,0,11.95-5.507,11.842-13.301v-7.061h-0.203c-3.224,5.707-9.564,8.311-16.104,8.311
		c-16.211,0-22.967-12.26-22.967-27.019c0-13.922,8.108-26.596,23.064-26.596c7.068,0,12.366,2.39,16.005,8.624h0.203v-7.174h14.027
		v50.288H289.587z M275.559,46.651c0-8.726-3.008-16.521-12.571-16.521c-8.314,0-11.95,7.278-11.95,15.275
		c0,7.694,2.803,16.105,11.95,16.105C271.403,61.506,275.559,54.339,275.559,46.651z"/>
	<path d="M313.623,50.91c0.413,9.457,4.885,13.613,13.2,13.613c5.921,0,10.699-3.636,11.634-6.962h12.988
		c-4.159,12.781-12.988,18.08-25.146,18.08c-16.936,0-27.43-11.64-27.43-28.264c0-16.102,11.123-28.361,27.43-28.361
		c18.288,0,27.222,15.377,26.081,31.894H313.623z M337.624,41.557c-1.347-7.477-4.57-11.428-11.736-11.428
		c-9.56,0-11.95,7.277-12.261,11.428H337.624z"/>
	<path d="M361.134,20.465h14.024v9.979h0.21c2.808-6.751,9.769-11.428,17.144-11.428c1.143,0,2.18,0.205,3.221,0.518v13.715
		c-1.351-0.311-3.531-0.516-5.297-0.516c-10.91,0-14.548,7.682-14.548,17.247v24.208h-14.754V20.465z"/>
	<path d="M401.993,20.465h13.921v7.28h0.203c3.848-5.51,9.354-8.729,16.42-8.729c6.757,0,12.779,2.39,15.686,8.938
		c3.225-4.679,8.729-8.938,16.214-8.938c11.428,0,19.635,5.298,19.635,19.218v35.95h-14.754V43.741
		c0-7.17-0.619-13.094-9.042-13.094c-8.311,0-9.866,6.964-9.866,13.614v29.923h-14.755V44.055c0-6.235,0.412-13.408-8.935-13.408
		c-2.911,0-9.972,1.871-9.972,12.368v31.169h-14.754V20.465L401.993,20.465z"/>
	<path d="M495.141,36.995c0.826-13.715,13.187-17.976,25.245-17.976c10.704,0,23.581,2.39,23.581,15.274v27.946
		c0,4.887,0.524,9.77,1.875,11.954h-14.957c-0.524-1.666-0.946-3.433-1.045-5.195c-4.675,4.882-11.425,6.649-18.078,6.649
		c-10.286,0-18.286-5.093-18.286-16.106c0.205-24.414,36.364-11.328,35.736-23.374c0-6.235-4.356-7.272-9.552-7.272
		c-5.713,0-9.246,2.286-9.766,8.106h-14.754V36.995z M529.21,47.904c-2.489,2.177-7.679,2.281-12.254,3.117
		c-4.573,0.828-8.729,2.489-8.729,7.893c0,5.409,4.261,6.855,9.038,6.855c11.533,0,11.944-9.039,11.944-12.36V47.904L529.21,47.904z
		"/>
	<path d="M555.426,20.465h14.029v7.489h0.309c3.74-6.13,10.183-8.938,16.417-8.938c15.688,0,19.635,8.83,19.635,22.126v33.042
		h-14.747V43.846c0-8.83-2.498-13.199-9.457-13.199c-7.998,0-11.426,4.474-11.426,15.381v28.156H555.43V20.465H555.426z"/>
	<path d="M616.448,36.995c0.834-13.715,13.194-17.976,25.245-17.976c10.705,0,23.587,2.39,23.587,15.274v27.946
		c0,4.887,0.519,9.77,1.871,11.954h-14.967c-0.518-1.666-0.933-3.433-1.033-5.195c-4.676,4.882-11.431,6.649-18.086,6.649
		c-10.284,0-18.281-5.093-18.281-16.106c0.205-24.414,36.367-11.328,35.745-23.374c0-6.235-4.37-7.272-9.569-7.272
		c-5.71,0-9.241,2.286-9.759,8.106h-14.753V36.995z M650.531,47.904c-2.497,2.177-7.689,2.281-12.262,3.117
		c-4.576,0.828-8.728,2.489-8.728,7.893c0,5.409,4.258,6.855,9.035,6.855c11.531,0,11.954-9.039,11.954-12.36V47.904L650.531,47.904
		z"/>
	<path d="M677.363,58.182h16.311v16.002h-16.311V58.182z"/>
	<path d="M705.635,20.465h14.029v9.979h0.207c2.812-6.751,9.768-11.428,17.146-11.428c1.144,0,2.183,0.205,3.23,0.518v13.715
		c-1.356-0.311-3.538-0.516-5.304-0.516c-10.91,0-14.551,7.682-14.551,17.247v24.208h-14.754V20.465H705.635z"/>
	<path d="M772.158,19.016c16.933,0,27.842,11.219,27.842,28.361c0,17.041-10.909,28.264-27.842,28.264
		c-16.835,0-27.742-11.223-27.742-28.264C744.416,30.235,755.323,19.016,772.158,19.016z M772.158,64.523
		c10.074,0,13.088-8.52,13.088-17.143c0-8.625-3.014-17.25-13.088-17.25c-9.972,0-12.986,8.625-12.986,17.25
		C759.172,56.003,762.187,64.523,772.158,64.523z"/>
</g>
</svg>
